<svg xmlns="http://www.w3.org/2000/svg" xmlns:xlink="http://www.w3.org/1999/xlink" version="1.1" width="1000" height="1000" viewBox="0 0 1000 1000" xml:space="preserve">
<desc>Created with Fabric.js 3.5.0</desc>
<defs>
</defs>
<rect x="0" y="0" width="100%" height="100%" fill="#ffffff"/>
<g transform="matrix(0.9091 0 0 0.9091 500.0045 500.0045)" id="588457">
<g style="" vector-effect="non-scaling-stroke">
		<g transform="matrix(1 0 0 1 -449.5 -449.5)" id="712204">
</g>
		<g transform="matrix(15.1515 0 0 15.1515 -351.7744 352.77)" id="136412">
<path style="stroke: rgb(107,55,82); stroke-width: 2; stroke-dasharray: none; stroke-linecap: butt; stroke-dashoffset: 0; stroke-linejoin: miter; stroke-miterlimit: 4; is-custom-font: none; font-file-url: none; fill: rgb(255,255,255); fill-rule: nonzero; opacity: 1;" vector-effect="non-scaling-stroke" transform=" translate(-6.75, -53.2499)" d="M 1 60 c -0.256 0 -0.512 -0.098 -0.707 -0.293 c -0.391 -0.391 -0.391 -1.023 0 -1.414 l 11.5 -11.5 c 0.391 -0.391 1.023 -0.391 1.414 0 s 0.391 1.023 0 1.414 l -11.5 11.5 C 1.512 59.902 1.256 60 1 60 z" stroke-linecap="round"/>
</g>
		<g transform="matrix(10.7137 10.7137 -10.7137 10.7137 -234.0155 234.7277)" id="708587">
<rect style="stroke: rgb(107,55,82); stroke-width: 2; stroke-dasharray: none; stroke-linecap: butt; stroke-dashoffset: 0; stroke-linejoin: miter; stroke-miterlimit: 4; is-custom-font: none; font-file-url: none; fill: rgb(255,255,255); fill-rule: nonzero; opacity: 1;" vector-effect="non-scaling-stroke" x="-2" y="-2.7845" rx="0" ry="0" width="4" height="5.569"/>
</g>
		<g transform="matrix(15.1515 0 0 15.1515 29.0298 -28.0308)" id="968688">
<path style="stroke: rgb(107,55,82); stroke-width: 2; stroke-dasharray: none; stroke-linecap: butt; stroke-dashoffset: 0; stroke-linejoin: miter; stroke-miterlimit: 4; is-custom-font: none; font-file-url: none; fill: rgb(255,255,255); fill-rule: nonzero; opacity: 1;" vector-effect="non-scaling-stroke" transform=" translate(-31.883, -28.117)" d="M 47.637 12.365 l -0.002 -0.002 c -0.953 -0.953 -2.038 -1.774 -3.221 -2.434 L 29.958 24.385 l 0 0 l 1.414 1.414 c 0.391 0.391 0.391 1.023 0 1.414 c -0.195 0.195 -0.451 0.293 -0.707 0.293 s -0.512 -0.098 -0.707 -0.293 l -1.414 -1.414 l 0 0 l -1.415 1.415 l 0 0 l 1.414 1.414 c 0.391 0.391 0.391 1.023 0 1.414 c -0.195 0.195 -0.451 0.293 -0.707 0.293 s -0.512 -0.098 -0.707 -0.293 l -1.414 -1.414 l 0 0 l -1.414 1.414 l 1.414 1.414 c 0.391 0.391 0.391 1.023 0 1.414 c -0.195 0.195 -0.451 0.293 -0.707 0.293 s -0.512 -0.098 -0.707 -0.293 l -1.414 -1.414 l -1.414 1.414 l 0 0 l 1.414 1.414 c 0.391 0.391 0.391 1.023 0 1.414 c -0.195 0.195 -0.451 0.293 -0.707 0.293 s -0.512 -0.098 -0.707 -0.293 l -1.414 -1.414 l 0 0 l -6.364 6.364 l 5.657 5.657 l 30.719 -30.719 C 49.411 14.402 48.59 13.318 47.637 12.365 z" stroke-linecap="round"/>
</g>
		<g transform="matrix(15.1515 0 0 15.1515 -126.4758 67.6282)" id="177767">
<path style="stroke: rgb(107,55,82); stroke-width: 2; stroke-dasharray: none; stroke-linecap: butt; stroke-dashoffset: 0; stroke-linejoin: miter; stroke-miterlimit: 4; is-custom-font: none; font-file-url: none; fill: rgb(255,255,255); fill-rule: nonzero; opacity: 1;" vector-effect="non-scaling-stroke" transform=" translate(-21.6196, -34.4305)" d="M 21.473 35.698 c 0.195 0.195 0.451 0.293 0.707 0.293 s 0.512 -0.098 0.707 -0.293 c 0.391 -0.391 0.391 -1.023 0 -1.414 l -1.414 -1.414 l 0 0 l -1.414 1.414 l 0 0 L 21.473 35.698 z" stroke-linecap="round"/>
</g>
		<g transform="matrix(15.1515 0 0 15.1515 -83.6122 24.7798)" id="674941">
<path style="stroke: rgb(107,55,82); stroke-width: 2; stroke-dasharray: none; stroke-linecap: butt; stroke-dashoffset: 0; stroke-linejoin: miter; stroke-miterlimit: 4; is-custom-font: none; font-file-url: none; fill: rgb(255,255,255); fill-rule: nonzero; opacity: 1;" vector-effect="non-scaling-stroke" transform=" translate(-24.4486, -31.6025)" d="M 25.009 33.163 c 0.256 0 0.512 -0.098 0.707 -0.293 c 0.391 -0.391 0.391 -1.023 0 -1.414 l -1.414 -1.414 l -1.414 1.414 l 1.414 1.414 C 24.497 33.065 24.753 33.163 25.009 33.163 z" stroke-linecap="round"/>
</g>
		<g transform="matrix(15.1515 0 0 15.1515 -40.7637 -18.0687)" id="761586">
<path style="stroke: rgb(107,55,82); stroke-width: 2; stroke-dasharray: none; stroke-linecap: butt; stroke-dashoffset: 0; stroke-linejoin: miter; stroke-miterlimit: 4; is-custom-font: none; font-file-url: none; fill: rgb(255,255,255); fill-rule: nonzero; opacity: 1;" vector-effect="non-scaling-stroke" transform=" translate(-27.2766, -28.7745)" d="M 27.13 30.042 c 0.195 0.195 0.451 0.293 0.707 0.293 s 0.512 -0.098 0.707 -0.293 c 0.391 -0.391 0.391 -1.023 0 -1.414 l -1.414 -1.414 l 0 0 l -1.414 1.414 l 0 0 L 27.13 30.042 z" stroke-linecap="round"/>
</g>
		<g transform="matrix(15.1515 0 0 15.1515 2.0847 -60.9323)" id="91678">
<path style="stroke: rgb(107,55,82); stroke-width: 2; stroke-dasharray: none; stroke-linecap: butt; stroke-dashoffset: 0; stroke-linejoin: miter; stroke-miterlimit: 4; is-custom-font: none; font-file-url: none; fill: rgb(255,255,255); fill-rule: nonzero; opacity: 1;" vector-effect="non-scaling-stroke" transform=" translate(-30.1046, -25.9455)" d="M 29.958 27.213 c 0.195 0.195 0.451 0.293 0.707 0.293 s 0.512 -0.098 0.707 -0.293 c 0.391 -0.391 0.391 -1.023 0 -1.414 l -1.414 -1.414 l 0 0 l -1.414 1.414 l 0 0 L 29.958 27.213 z" stroke-linecap="round"/>
</g>
		<g transform="matrix(10.7137 10.7137 -10.7137 10.7137 -182.7533 183.4642)" id="574199">
<rect style="stroke: rgb(107,55,82); stroke-width: 2; stroke-dasharray: none; stroke-linecap: butt; stroke-dashoffset: 0; stroke-linejoin: miter; stroke-miterlimit: 4; is-custom-font: none; font-file-url: none; fill: rgb(255,255,255); fill-rule: nonzero; opacity: 1;" vector-effect="non-scaling-stroke" x="-4" y="-2" rx="0" ry="0" width="8" height="4"/>
</g>
		<g transform="matrix(15.1515 0 0 15.1515 214.1341 -213.1386)" id="443797">
<path style="stroke: rgb(107,55,82); stroke-width: 2; stroke-dasharray: none; stroke-linecap: butt; stroke-dashoffset: 0; stroke-linejoin: miter; stroke-miterlimit: 4; is-custom-font: none; font-file-url: none; fill: rgb(255,255,255); fill-rule: nonzero; opacity: 1;" vector-effect="non-scaling-stroke" transform=" translate(-44.1, -15.8999)" d="M 37.736 23.264 c -0.256 0 -0.512 -0.098 -0.707 -0.293 c -0.391 -0.391 -0.391 -1.023 0 -1.414 L 49.757 8.829 c 0.391 -0.391 1.023 -0.391 1.414 0 s 0.391 1.023 0 1.414 L 38.443 22.971 C 38.248 23.166 37.992 23.264 37.736 23.264 z" stroke-linecap="round"/>
</g>
		<g transform="matrix(10.7137 10.7137 -10.7137 10.7137 117.2177 -116.5098)" id="513753">
<rect style="stroke: rgb(107,55,82); stroke-width: 2; stroke-dasharray: none; stroke-linecap: butt; stroke-dashoffset: 0; stroke-linejoin: miter; stroke-miterlimit: 4; is-custom-font: none; font-file-url: none; fill: rgb(255,255,255); fill-rule: nonzero; opacity: 1;" vector-effect="non-scaling-stroke" x="-4" y="-1" rx="0" ry="0" width="8" height="2"/>
</g>
		<g transform="matrix(15.1515 0 0 15.1515 364.1355 -363.1365)" id="678200">
<path style="stroke: rgb(107,55,82); stroke-width: 2; stroke-dasharray: none; stroke-linecap: butt; stroke-dashoffset: 0; stroke-linejoin: miter; stroke-miterlimit: 4; is-custom-font: none; font-file-url: none; fill: rgb(255,255,255); fill-rule: nonzero; opacity: 1;" vector-effect="non-scaling-stroke" transform=" translate(-54, -6)" d="M 54 12 c -1.603 0 -3.109 -0.624 -4.243 -1.757 S 48 7.603 48 6 s 0.624 -3.109 1.757 -4.243 S 52.397 0 54 0 s 3.109 0.624 4.243 1.757 S 60 4.397 60 6 s -0.624 3.109 -1.757 4.243 S 55.603 12 54 12 z M 54 2 c -1.068 0 -2.073 0.416 -2.829 1.171 S 50 4.932 50 6 s 0.416 2.073 1.171 2.829 c 1.511 1.511 4.146 1.511 5.657 0 C 57.584 8.073 58 7.068 58 6 s -0.416 -2.073 -1.171 -2.829 S 55.068 2 54 2 z" stroke-linecap="round"/>
</g>
		<g transform="matrix(15.1515 0 0 15.1515 224.8402 -223.8566)" id="759120">
<path style="stroke: rgb(107,55,82); stroke-width: 2; stroke-dasharray: none; stroke-linecap: butt; stroke-dashoffset: 0; stroke-linejoin: miter; stroke-miterlimit: 4; is-custom-font: none; font-file-url: none; fill: rgb(255,255,255); fill-rule: nonzero; opacity: 1;" vector-effect="non-scaling-stroke" transform=" translate(-44.8065, -15.1925)" d="M 51.878 23.264 c -0.544 0 -0.99 -0.436 -1 -0.982 c -0.127 -7.129 -6.031 -13.033 -13.161 -13.161 c -0.552 -0.01 -0.992 -0.466 -0.982 -1.018 s 0.46 -0.987 1.018 -0.982 c 8.193 0.146 14.978 6.931 15.125 15.125 c 0.01 0.552 -0.43 1.008 -0.982 1.018 C 51.891 23.264 51.885 23.264 51.878 23.264 z" stroke-linecap="round"/>
</g>
</g>
</g>
</svg>