<?xml version="1.0" encoding="UTF-8"?>
<svg xmlns="http://www.w3.org/2000/svg" width="47" height="47" viewBox="0 0 47 47" fill="none">
  <path d="M31.1906 28.254H3.39894C3.1343 28.254 2.91977 28.4686 2.91977 28.7332V44.0665C2.91977 44.3311 3.1343 44.5457 3.39894 44.5457H31.1906C31.4552 44.5457 31.6698 44.3311 31.6698 44.0665V28.7332C31.6698 28.4686 31.4552 28.254 31.1906 28.254Z" fill="#FBF3EC" stroke="#6B3752"></path>
  <path d="M38.0753 17.3111L31.4974 18.6272C31.2379 18.6792 31.0693 18.9317 31.1208 19.1913L36.1589 44.571C36.2105 44.8306 36.4626 44.9989 36.722 44.947L43.2999 43.6309C43.5594 43.5791 43.728 43.3265 43.6766 43.0669L38.6385 17.6872C38.5869 17.4276 38.3348 17.2593 38.0753 17.3111Z" fill="#FBF3EC" stroke="#6B3752"></path>
  <path d="M29.2739 22.504H5.31559C5.05096 22.504 4.83643 22.7186 4.83643 22.9832V27.7749C4.83643 28.0395 5.05096 28.254 5.31559 28.254H29.2739C29.5385 28.254 29.7531 28.0395 29.7531 27.7749V22.9832C29.7531 22.7186 29.5385 22.504 29.2739 22.504Z" fill="#FBF3EC" stroke="#6B3752"></path>
  <path d="M30.2323 25.8582H4.35727V26.8165H30.2323V25.8582Z" fill="#6B3752"></path>
  <path d="M30.2323 23.9415H4.35727V24.8999H30.2323V23.9415Z" fill="#6B3752"></path>
  <path d="M10.4646 11.284C11.6346 12.6127 9.50969 14.2366 9.50969 14.2366C3.80128 17.7798 5.18511 21.1261 6.39598 22.504H28.2714C30.2323 16.2749 24.0939 16.8831 18.2531 15.3165C12.4122 13.7499 9.29459 9.95525 10.4646 11.284Z" fill="white" stroke="#6B3752"></path>
</svg>
