<svg width="49" height="49" viewBox="0 0 49 49" fill="none" xmlns="http://www.w3.org/2000/svg">
<path d="M20.1488 4.64149C23.2488 7.24149 22.9488 12.5415 19.5488 16.5415C16.1488 20.5415 10.9488 21.6415 7.84882 18.9415C4.84882 16.4415 5.14882 11.0415 8.54882 7.14149C11.9488 3.14149 17.1488 2.04149 20.1488 4.64149Z" fill="#FBF3EC"/>
<path d="M41.1489 20.9415C41.1489 31.4415 33.5489 39.9415 24.1489 39.9415C14.7489 39.9415 7.14893 31.4415 7.14893 20.9415C7.14893 10.4415 14.7489 1.94153 24.1489 1.94153C33.5489 1.94153 41.1489 10.4415 41.1489 20.9415Z" fill="#FBF3EC"/>
<path d="M24.1489 1.94153C21.8489 1.94153 19.6489 2.44153 17.5489 3.44153C14.6489 2.84153 11.0489 4.14153 8.44891 7.14153C5.24891 10.8415 4.84891 15.6415 7.24891 18.4415C7.14891 19.2415 7.14891 20.0415 7.14891 20.9415C7.14891 26.3415 9.14891 31.2415 12.4489 34.7415C13.7489 41.6415 18.8489 47.9415 24.1489 47.9415C28.6489 47.9415 34.2489 41.6415 35.7489 34.8415C39.0489 31.3415 41.1489 26.4415 41.1489 20.9415C41.1489 10.4415 33.5489 1.94153 24.1489 1.94153ZM9.24891 7.74153C11.2489 5.44153 13.7489 4.24153 15.9489 4.24153C11.7489 6.84153 8.54891 11.4415 7.54891 16.9415C6.14891 14.6415 6.64891 10.8415 9.24891 7.74153ZM34.8489 34.3415C34.7489 34.9415 34.5489 35.5415 34.3489 36.1415C33.6489 38.3415 32.5489 40.3415 31.2489 42.1415C30.1489 43.6415 28.8489 44.8415 27.6489 45.7415C26.3489 46.5415 25.1489 46.9415 24.1489 46.9415C21.5489 46.9415 18.7489 45.1415 16.6489 42.1415C15.3489 40.3415 14.3489 38.2415 13.7489 36.0415C13.5489 35.4415 13.4489 34.9415 13.3489 34.3415C13.1489 33.4415 13.1489 32.4415 13.1489 31.5415C13.1489 27.7415 14.3489 24.0415 16.2489 21.3415C17.4489 19.6415 18.9489 18.4415 20.6489 17.7415C20.6489 17.7415 20.7489 17.7415 20.8489 17.6415C21.8489 17.2415 22.9489 17.0415 24.1489 17.0415C27.3489 17.0415 30.0489 18.7415 32.0489 21.3415C34.0489 24.0415 35.1489 27.6415 35.1489 31.5415C35.1489 32.4415 35.0489 33.3415 34.8489 34.3415ZM24.1489 15.9415H23.9489C24.2489 15.7415 24.4489 15.6415 24.7489 15.4415C26.4489 14.2415 28.1489 12.4415 28.6489 10.0415L27.6489 9.84153C27.2489 11.8415 25.8489 13.4415 24.1489 14.6415C22.7489 15.6415 21.2489 16.3415 20.4489 16.6415C20.4489 16.6415 20.3489 16.6415 20.2489 16.7415C20.2489 16.7415 20.1489 16.7415 20.1489 16.8415C19.5489 17.1415 18.9489 17.4415 18.3489 17.8415C18.0489 18.1415 17.7489 18.3415 17.3489 18.6415C14.1489 21.4415 12.1489 26.3415 12.1489 31.4415C12.1489 31.9415 12.1489 32.4415 12.2489 32.9415C9.64891 29.7415 8.14891 25.5415 8.14891 20.9415C8.14891 20.3415 8.14891 19.8415 8.24891 19.2415C8.24891 18.8415 8.34891 18.4415 8.34891 18.0415C9.24891 11.9415 12.8489 6.84153 17.7489 4.44153C18.1489 4.24153 18.5489 4.04153 19.0489 3.94153C20.6489 3.34153 22.4489 2.94153 24.1489 2.94153C32.8489 2.94153 40.1489 10.9415 40.1489 20.9415C40.1489 25.5415 38.6489 29.7415 36.0489 32.9415C36.0489 32.4415 36.1489 31.9415 36.1489 31.4415C36.1489 23.4415 31.3489 15.9415 24.1489 15.9415Z" fill="#6B3752"/>
<path d="M19.1489 30.3415C18.1489 30.2415 17.3489 29.7415 16.8489 29.2415L17.5489 28.5415C17.9489 28.8415 18.5489 29.2415 19.3489 29.3415C20.1489 29.4415 21.0489 29.3415 21.8489 28.5415L22.5489 29.2415C21.3489 30.3415 20.1489 30.5415 19.1489 30.3415Z" fill="#6B3752"/>
<path d="M28.1489 30.3415C27.1489 30.2415 26.3489 29.7415 25.8489 29.2415L26.5489 28.5415C26.9489 28.8415 27.5489 29.2415 28.3489 29.3415C29.1489 29.4415 30.0489 29.3415 30.8489 28.5415L31.5489 29.2415C30.3489 30.3415 29.1489 30.5415 28.1489 30.3415Z" fill="#6B3752"/>
<path d="M24.349 41.8415C22.749 42.1415 21.149 41.6415 20.249 40.7415L20.949 40.0415C21.549 40.6415 22.749 41.0415 24.149 40.8415C25.549 40.6415 27.049 39.8415 28.149 38.1415L28.949 38.7415C27.749 40.6415 26.049 41.5415 24.349 41.8415Z" fill="#6B3752"/>
</svg>
